<svg version="1.1" id="prefix__Layer_1" xmlns="http://www.w3.org/2000/svg" x="0" y="0" viewBox="0 0 677.2 75" xml:space="preserve"><style>.prefix__st0{fill:#006db6}</style><g id="prefix__Layer_2_00000032618212643928234980000011499079907907757234_"><g id="prefix__clt"><path class="prefix__st0" d="M49.6 43.5c-5.8 12-10.8 18.8-24.8 18.8S.3 52.7.3 38.8c0-12.1 6.5-19.5 14-24.4l.6.5C11.2 19.4 9.1 25.1 9.1 31c-.3 6.3 2.5 12.5 7.4 16.5l2-1.1c1.7-.9 2.1-1.8 2.1-4.5V21.4l-3.3 1.8-.4-1s9.9-6.2 12.2-7.4v-.1c-8.8-2.5-10.4-5.4-16-5.4S4.1 13 .9 20.9l-.9-.4C.4 11.7 4.3 0 20.3 0c3.2 0 6.6 1.8 10.7 3.5C33.9 5 37.1 6 40.3 6.6c3.8.3 7.3-2 8.5-5.6l.6.4C48.7 6.7 44.2 14 38 15.2v35.3c4.4-1.2 8.3-4 10.8-7.9l.8.9zM36.8 51V15.5c-.9.1-1.8.2-2.8.1-1.2-.1-2.5-.3-3.7-.6v21.2c0 3.3-1.2 4.5-4.5 6.5l-8.4 5.2c3.7 2.7 8.1 4 12.7 3.9 2.3.1 4.5-.2 6.7-.8zM80.4 26.6c-.8.4-1.4 1.5-1.4 3.6v21.3c-.3 10-6.2 19.1-15.1 23.6l-.6-.7c3.7-3.5 5.8-9.5 5.8-17.1V29.5l-5.4-3.7-1.6 1.3v24.8l3.9 2.3-7.1 7-8.6-5.6c1.4-.9 2.2-2.5 2-4.2V6.8L63.9.4l.5.8c-1.6 1.1-2.3 1.9-2.3 5V26l7.6-7.1 10.7 7.5v.2zM110.5 32.9l-16 9.1v7.6l7.5 4.9 4-3.7.8.8L96 61.1l-13.3-8.9v-.1c1.2-.8 1.9-2.1 1.9-3.5V29.5l18.2-10.4 7.7 13.8zm-9.3 4.2L94.8 25h-.2v15.9l6.6-3.8zM362.7 52.1l-9.1 9.2-12.1-7.4v-.2c1.3-.8 2-2.3 2-3.8V27.4h-5.2l2.3-5.1h2.9v-8L355 8.2l.5.8c-1.5.9-2.4 2.6-2.3 4.4V22h8l-2.7 5.4h-5.4V51l6 3 2.7-2.6.9.7zM339.3 52.1l-9.3 9.2-12.1-7.4v-.2c1.3-.8 2-2.3 2-3.8V27.4h-5.2l2.3-5.1h2.9v-8l11.7-6.1.4.8c-1.5.9-2.4 2.6-2.3 4.4V22h8l-2.4 5.4h-5.4V51l6 3 2.7-2.6.7.7zM285.4 52.2L276 61l-9.9-6.8v-.1c1.3-.9 2.1-2.5 2-4V6.8L279.6.9l.5.8c-1.5 1.3-2.3 1.9-2.3 5.5V51l4.2 2.6 2.6-2 .8.6zM266.4 21.4c-.2 5.4-2.5 8.7-7.9 8.7-2.6-.2-4.9-1.6-6.2-3.8l-1.3 1.4v22.5l5.2 3.8 3.2-3.2.8.8-9.8 9.7-11.4-7.8v-.2c1.4-1 2.2-2.8 1.9-4.5v-20l-2.5-2.1L236 29l-.9-.8 9.3-9.1 6.5 5v2.5h.1l6.8-7.4h.1c1.7 1.6 3.9 2.5 6.2 2.5.8 0 1.5-.1 2.3-.3zM203.1 26.6c-.9.4-1.5 1.5-1.5 3.6v21.2c-.3 10-6.1 19.1-15.1 23.6l-.6-.7c3.7-3.5 5.8-9.5 5.8-17.1V29.5l-5.3-3.7-1.6 1.2v24.8l3.8 2.3-7.1 7-8.5-5.6c1.4-.9 2.1-2.5 1.9-4.2V6.8L186.5.4l.4.8c-1.6 1.1-2.3 1.9-2.3 5.1V26l7.5-7.1 10.7 7.5.3.2z"/><path class="prefix__st0" d="M389 32.9L373 42v7.6l7.5 4.9 4-3.7.8.8-10.8 9.5-13.4-8.9V52c1.2-.8 1.9-2.1 2-3.5v-19L381.4 19l7.6 13.9zm-9.1 4.2L373.4 25h-.2v16l6.7-3.9zM313.3 26c-1.1.8-1.6 1.9-1.6 4.1v21.3l-16.6 9.8-11.7-7.8v-.1c1.2-.8 2-2.2 2-3.7V29.2L302.5 19l10.8 6.9v.1zm-11.4 29.2V28.5l-6.5-4.1h-.1v26.7l6.4 4.1h.2zM237.9 52l-9 9-7.7-5.6-8 5.7c-5.1-1.7-8.3-6.6-8-11.9 0-6.1 3.2-10.4 10.1-12.5-4-3.3-8.5-8.3-8.5-13.2-.1-2.3 1.6-4.3 4-4.4h.2c1.8-.1 3.3 1.2 3.4 3v.6c-.1 2-1.8 3.5-3.8 3.5.7.5 1.6.7 2.5.7 3.1 0 6.4-4.8 8.6-8.1l10.9 7.1v.1c-1.4.8-1.7 2.3-1.7 5.3v19.6l3.8 2.7 2.3-2.5.9.9zm-16.7-16.7V29l-4-2.7c-1.1 1.1-2.5 1.8-4.1 1.8-1.4.1-2.9-.4-4-1.3h-.1c.6 3 4.2 7 7.3 9.7 1.6-.6 3.2-1 4.9-1.2zm0 18.9V36.5c-4.4 0-6 4.4-6 9.6 0 4.4 1.5 7.8 4.4 9.1l1.6-1zM173.3 48.8c-6.9 10.3-13.7 13.7-25.7 13.7-15 0-25.1-13-25.1-28.9 0-16.8 12.2-26.7 20.2-28.7l.4.8c-6.1 3.7-10.2 11.4-10.2 24.5-.1 5.8 1.8 11.5 5.5 16l1.2-.7c1.6-.8 2.5-2.6 2.3-4.3V12.3L139 14l-.6-1L158.2.9C161 5 166 7.1 170.8 6l.1.2c-.6 4.6-4.5 8-9.1 8-1.4.1-2.9-.2-4.2-.6v40.1c5.6-.2 10.9-2.2 15.2-5.6l.5.7zm-16.6 5V13.2c-2.2-1.1-4-2.8-5.3-5v25.7c0 4.3 0 5.8-3.8 8.2l-8.2 5.2c4.1 4.1 9.4 6.1 17.3 6.5zM677.2 21.4c-.2 5.4-2.5 8.7-7.9 8.7-2.5-.2-4.9-1.6-6.2-3.8l-1.3 1.4v22.5L667 54l3.2-3.2.7.8-9.8 9.7-11.4-7.8v-.2c1.5-1 2.2-2.8 1.9-4.5v-20l-2.5-2.1-2.5 2.4-.9-.8 9.3-9.1 6.4 5v2.5h.2l6.8-7.4h.2c1.7 1.6 4 2.5 6.4 2.4.7 0 1.4-.1 2.1-.4l.1.1zM617.7 24.9c-1.5.9-2.4 2.6-2.3 4.4v22L598.8 61l-12.1-8c1.4-.9 2.2-2.5 2-4.2V32.5c0-6.4-4-6.5-4-11.2 0-5.6 6.8-7.7 11.4-7.7l.5 1.1c-1.8-.3-3.4.9-3.7 2.6v.4c0 4.1 5.8 3.8 5.8 11.4v21.4l6.5 4.7.3-.2V28.6l-4-2.7 7-6.9 9.2 5.9zM583.4 21.4c-.2 5.4-2.6 8.7-7.9 8.7-2.5-.2-4.9-1.6-6.2-3.8l-1.3 1.4v22.5l5.2 3.8 3.2-3.2.8.8-9.8 9.7-11.2-7.8v-.2c1.5-1 2.2-2.8 1.9-4.5v-20l-2.5-2.1-2.5 2.4-1-.8 9.4-9.1 6.3 5v2.5h.2l6.8-7.4h.2c1.7 1.6 4 2.5 6.3 2.5.7 0 1.4-.1 2-.4h.1zM646.4 32.9l-16 9.1v7.6l7.5 4.9 4-3.7.8.8-10.7 9.6-13.4-8.9v-.2c1.2-.8 1.9-2.1 2-3.5V29.5L638.8 19l7.6 13.9zm-9.1 4.2L630.8 25h-.2v16l6.7-3.9zM552.5 32.9l-16 9.1v7.6l7.5 4.9 4-3.7.8.8-10.7 9.5-13.4-8.9V52c1.2-.8 1.9-2.1 2-3.5v-19L545.1 19l7.4 13.9zm-9.1 4.2L536.9 25h-.2v16l6.7-3.9zM522 51.7l-15.5 9.5c-2-1.6-4.5-2.5-7-2.3-2.1 0-4.1.8-5.8 2.1l-.8-.5c3-4.3 10.5-15.6 10.5-15.6l-8.7-5.4V29l16.6-9.8c1.1 1.8 3 2.9 5.1 3 2.6 0 3.8-1.1 3.8-2.7 0-.5 0-1-.3-1.5l1.7-.8c.2.5.3 1 .3 1.6 0 1.2-.4 2.4-1.1 3.3l-8.1 11.7 9.4 6.4-.1 11.5zm-7.5-23.1c-1.1.5-2.2.8-3.5.7-2.5-.2-4.7-1.4-6.3-3.2v9.1l3.8 2.5c2.4-3.5 3.7-5.8 6-9.1zm-2.6 25.3v-9.5l-4.5-3.2c-3 4.1-9.1 13.7-9.1 13.7 2.1-1.3 4.6-2 7.1-2.2 2.1 0 4.4.4 6.5 1.2zM492 26.1c-1.1.7-1.6 1.8-1.6 4.4v20.9L473.8 61l-12.1-8.3v-.2c1.5-1.1 2.2-3 2-4.8V6.8L475.3.4l.5.7c-1.7 1.1-2.5 3.2-2.3 5.2v19.9l7.5-7.3 11 7v.2zm-11.6 29.2V29.5l-5.7-3.6-1.2 1.6v22.8l6.9 5zM459.8 27.4c0 19.1-12.3 34.9-27.8 34.9-16.5 0-26.6-13.4-26.6-28.6-.3-13.1 7.5-25 19.6-30l.8.5c-6.2 5-9.9 13.7-9.9 27.4-.1 5.3 1.6 10.5 4.9 14.7l1.6-.8c1.6-.9 2.5-2.7 2.3-4.5V13.1l-2.9 1.7-.4-1.1L442.9.9c7.5 2.3 16.9 10.5 16.9 26.5zm-8.2 1.6c-1-7.3-5-13.9-11.1-18v17.9c1.9.5 3.8.8 5.7.8 1.8-.1 3.7-.3 5.4-.7zm.2 3v-2.3c-1.8.5-3.6.7-5.5.7s-3.9-.3-5.7-.8v5c1.9-.5 3.8-.8 5.7-.8 1.9 0 3.7.2 5.5.7V32zm0 3.5c-1.8-.5-3.6-.8-5.5-.8s-3.9.3-5.7.8v18.2c7.3-1.3 10.6-8 11.1-18.3h.1zM439.7 54V10.4c-1.6-1.1-3.3-1.9-5.1-2.6l-.1.2v26.4c0 5.3-.8 5.6-4.9 8.2l-7.6 4.8c3.9 4.3 9.4 6.7 15.2 6.7.8.1 1.7.1 2.5-.1z"/></g></g></svg>